# xmcd CD database file
# Copyright (C) 1993-1998 Ti Kan
#
# Track frame offsets:
#  200
#  11495
#  23157
#  39235
#  47290
#  57740
#  71052
#  79862
#  89200
#  99860
#  112405
#  124222
#  137212
#  150730
#  160437
#
# Disc length: 2311 seconds
#
# Revision: 1
# Processed by: cddbd v1.4b41PL1 Copyright (c) Steve Scherf et al.
# Submitted via: CDWizzard Release:4.35
#
DISCID=cf09050f
DTITLE=Doyle Lawson and Quicksilver - The Gospel Collection - Vol. 1
DYEAR=1900
DGENRE=
TTITLE0=My Lord Delivered Me
TTITLE1=He Put A Rainbow In The Clouds For Me
TTITLE2=God Sent An Angel
TTITLE3=Calm The Storm
TTITLE4=Touch The Hem Of His Garment
TTITLE5=A Vision Of Jesus
TTITLE6=Happy On My Way
TTITLE7=When The Sun Of My Life Goes Down
TTITLE8=Lay Your Burdens At His Feet
TTITLE9=Where No One Stands Alone
TTITLE10=Hiding From The Storm Outside
TTITLE11=Rocking On The Waves
TTITLE12=What A Wonderful, Beautiful Place
TTITLE13=A Lover Of The Lord
TTITLE14=Let Us Travel On
EXTD=
EXTT0=
EXTT1=
EXTT2=
EXTT3=
EXTT4=
EXTT5=
EXTT6=
EXTT7=
EXTT8=
EXTT9=
EXTT10=
EXTT11=
EXTT12=
EXTT13=
EXTT14=
PLAYORDER=
